<svg xmlns="http://www.w3.org/2000/svg" xmlns:xlink="http://www.w3.org/1999/xlink" width="31" height="32" viewBox="0 0 31 32">
  <defs>
    <clipPath id="clip-path">
      <rect id="Rectangle_774" data-name="Rectangle 774" width="31" height="32" transform="translate(1264 31)" fill="#fff" stroke="#707070" stroke-width="1"/>
    </clipPath>
  </defs>
  <g id="Mask_Group_280" data-name="Mask Group 280" transform="translate(-1264 -31)" clip-path="url(#clip-path)">
    <path id="Notification_-_5" data-name="Notification - 5" d="M9.892,14.166l1.188.322h0ZM16.67,7.06l-.38-1.171ZM9.818,14.438,8.63,14.116h0ZM9.5,21.116l1.213-.208h0Zm.037.216-1.213.208h0Zm.78,7.316.246-1.206Zm.6.123.246-1.206h0Zm17.542,0-.246-1.206h0Zm.6-.123.246,1.206Zm.787-7.358,1.213.208h0Zm.039-.229-1.213-.208h0Zm-.286-6.577-1.19.312h0Zm-.1-.39,1.19-.312h0ZM22.92,7.07,23.306,5.9h0Zm7.2,14.757-.6,1.074ZM9.3,21.808l-.589-1.08ZM20.923,4.923a1.231,1.231,0,1,0-2.462,0ZM18.462,6.572a1.231,1.231,0,1,0,2.462,0ZM14.784,29.38l.138-1.223-1.473-.166.108,1.478Zm9.816,0,1.227.089.107-1.478-1.472.166Zm-.149.942,1.2.294Zm-.134.547-1.2-.294Zm-3.47,3.457.286,1.2h0Zm-2.31,0-.286,1.2h0Zm-3.47-3.457-1.2.294Zm-.135-.547,1.2-.294h0ZM11.08,14.488a9.112,9.112,0,0,1,5.97-6.257l-.759-2.342A11.574,11.574,0,0,0,8.7,13.844Zm-.074.272.074-.272L8.7,13.844l-.074.272Zm-.292,6.148a14.291,14.291,0,0,1,.292-6.148L8.63,14.116a16.752,16.752,0,0,0-.343,7.208Zm.037.216-.037-.216-2.426.415.037.216ZM8.615,25.043a2.449,2.449,0,0,1,1.275-2.154L8.712,20.727a4.911,4.911,0,0,0-2.558,4.315Zm1.948,2.4a2.443,2.443,0,0,1-1.948-2.4H6.154a4.905,4.905,0,0,0,3.919,4.811Zm.6.123-.6-.123-.491,2.412.6.123Zm17.051,0a42.7,42.7,0,0,1-17.051,0l-.491,2.412a45.166,45.166,0,0,0,18.033,0Zm.6-.123-.6.123.491,2.412.6-.123Zm1.948-2.4a2.443,2.443,0,0,1-1.948,2.4l.491,2.412a4.905,4.905,0,0,0,3.919-4.811ZM29.517,22.9a2.449,2.449,0,0,1,1.252,2.142h2.462a4.911,4.911,0,0,0-2.512-4.29Zm-.837-2.047-.039.229,2.426.416.039-.229ZM28.417,14.8a14.338,14.338,0,0,1,.264,6.057l2.426.415a16.8,16.8,0,0,0-.309-7.1Zm-.1-.39.1.39,2.381-.625-.1-.39Zm-5.78-6.167a8.854,8.854,0,0,1,5.78,6.167l2.381-.625A11.315,11.315,0,0,0,23.306,5.9ZM17.05,8.231a8.85,8.85,0,0,1,5.485.008L23.306,5.9a11.311,11.311,0,0,0-7.016-.012ZM30.719,20.753a.71.71,0,0,1,.348.745l-2.426-.416a1.751,1.751,0,0,0,.876,1.819Zm-22.394.786a.772.772,0,0,1,.387-.812l1.179,2.161a1.69,1.69,0,0,0,.86-1.765ZM18.462,4.923V6.572h2.462V4.923ZM14.647,30.6a45.168,45.168,0,0,0,10.091,0l-.275-2.446a42.7,42.7,0,0,1-9.541,0Zm11,.012a6.9,6.9,0,0,0,.181-1.146l-2.455-.179a4.428,4.428,0,0,1-.117.737Zm-.135.547.135-.547-2.39-.588-.134.547Zm-4.378,4.36a5.936,5.936,0,0,0,4.378-4.36l-2.39-.588a3.474,3.474,0,0,1-2.561,2.553Zm-2.883,0a6.2,6.2,0,0,0,2.883,0l-.573-2.394a3.732,3.732,0,0,1-1.738,0Zm-4.378-4.36a5.936,5.936,0,0,0,4.378,4.36l.573-2.394a3.474,3.474,0,0,1-2.561-2.553Zm-.135-.547.135.547,2.39-.588-.135-.547Zm-.181-1.146a6.9,6.9,0,0,0,.181,1.146l2.39-.588a4.435,4.435,0,0,1-.117-.737Z" transform="translate(1259.808 27.308)" fill="#fff"/>
  </g>
</svg>
