<svg xmlns="http://www.w3.org/2000/svg" xmlns:xlink="http://www.w3.org/1999/xlink" width="13" height="13" viewBox="0 0 13 13">
  <defs>
    <clipPath id="clip-path">
      <rect id="Rectangle_38" data-name="Rectangle 38" width="13" height="13" transform="translate(839 520)" fill="#fff" stroke="#707070" stroke-width="1"/>
    </clipPath>
  </defs>
  <g id="Mask_Group_8" data-name="Mask Group 8" transform="translate(-839 -520)" clip-path="url(#clip-path)">
    <g id="gamer" transform="translate(838.458 519.567)">
      <path id="Path_55" data-name="Path 55" d="M3.033,4.55l.217-.173V1.95A1.3,1.3,0,0,1,4.55.65H3.683a1.3,1.3,0,0,0-1.3,1.3V4.767h.65Z" fill="#66351e"/>
      <path id="Path_56" data-name="Path 56" d="M4.117,3.683h.217v-.65A1.517,1.517,0,0,1,5.85,1.517H7.8C7.8,1.038,7.241.65,6.283.65H4.55a1.3,1.3,0,0,0-1.3,1.3V4.377Z" fill="#4d2817"/>
      <path id="Path_57" data-name="Path 57" d="M6.283.433h-2.6A1.517,1.517,0,0,0,2.167,1.95V5.417H2.6V1.95A1.083,1.083,0,0,1,3.683.867h2.6c.853,0,1.3.327,1.3.65h.433C8.017.977,7.481.433,6.283.433Z" fill="#606060"/>
      <path id="Path_58" data-name="Path 58" d="M8.883,9.393c.6.244,1.083.523,1.083.79v3.25H.867v-3.25c0-.718,3.467-1.517,3.467-1.517H6.5Z" fill="#d0382a"/>
      <path id="Path_59" data-name="Path 59" d="M8.883,10.043,6.5,9.317H4.333S1.274,10.022.9,10.7l-.037-.519c0-.718,3.467-1.517,3.467-1.517H6.5l2.383.727c.6.244,1.083.523,1.083.79l-.037.524A2.216,2.216,0,0,0,8.883,10.043Z" fill="#b33024"/>
      <path id="Path_60" data-name="Path 60" d="M2.167,6.5H2.6v6.933H2.167Z" fill="#878787"/>
      <path id="Path_61" data-name="Path 61" d="M8.883,6.067V5.2a.867.867,0,0,0-.867-.867H7.8V6.067Z" fill="#606060"/>
      <g id="Group_67" data-name="Group 67">
        <path id="Path_62" data-name="Path 62" d="M6.717,2.167v-.65H5.85A1.517,1.517,0,0,0,4.333,3.033v.65H5.2A1.517,1.517,0,0,0,6.717,2.167Z" fill="#66351e"/>
        <path id="Path_63" data-name="Path 63" d="M6.717,2.167A1.517,1.517,0,0,1,5.2,3.683H6.5A1.517,1.517,0,0,0,8.017,2.167v-.65h-1.3Z" fill="#66351e"/>
        <path id="Path_64" data-name="Path 64" d="M6.5,3.683H7.8a1.508,1.508,0,0,0,.65-.148v0a1.515,1.515,0,0,0,.867-1.369v-.65h-1.3v.65A1.517,1.517,0,0,1,6.5,3.683Z" fill="#66351e"/>
      </g>
      <path id="Path_65" data-name="Path 65" d="M8.017,4.333H7.8v.433a.867.867,0,0,1,.867.867v.433h.217V5.2A.867.867,0,0,0,8.017,4.333Z" fill="#878787"/>
      <path id="Path_66" data-name="Path 66" d="M4.52,7.881a1.1,1.1,0,0,0,.528.135h.738a1.1,1.1,0,0,0,.528-.135l.187-.1V9.1a1.532,1.532,0,0,1-2.167,0V7.779Z" fill="#fce0b9"/>
      <path id="Path_67" data-name="Path 67" d="M4.333,7.779l.187.1a1.1,1.1,0,0,0,.528.135h.738a1.1,1.1,0,0,0,.528-.135l.187-.1V9.1c-.034.034-.07.066-.106.1L4.333,7.862Z" fill="#d4b994"/>
      <path id="Path_68" data-name="Path 68" d="M5.2,3.25H4.333v.433H5.2A1.517,1.517,0,0,0,6.717,2.167V1.733A1.517,1.517,0,0,1,5.2,3.25Z" fill="#3d2012"/>
      <path id="Path_69" data-name="Path 69" d="M6.5,3.25H6.26a1.511,1.511,0,0,1-1.06.433H6.5A1.517,1.517,0,0,0,8.017,2.167V1.733A1.517,1.517,0,0,1,6.5,3.25Z" fill="#4d2817"/>
      <path id="Path_70" data-name="Path 70" d="M8.45,3.1a1.508,1.508,0,0,1-.65.148H7.56a1.511,1.511,0,0,1-1.06.433H7.8A1.521,1.521,0,0,0,9.317,2.167V1.733A1.515,1.515,0,0,1,8.45,3.1Z" fill="#3d2012"/>
      <path id="Path_71" data-name="Path 71" d="M2.167,12.35l2.167-.433h1.3a.65.65,0,0,1,.65.65v.867H2.167Z" fill="#fce0b9"/>
      <path id="Path_72" data-name="Path 72" d="M3.033,6.325V4.333H2.6a.867.867,0,0,0-.867.867v.867a.867.867,0,0,0,.867.867h.587A1.3,1.3,0,0,1,3.033,6.325Z" fill="#606060"/>
      <path id="Path_73" data-name="Path 73" d="M2.383,6.283V5.417a.865.865,0,0,1,.65-.836V4.333H2.6a.867.867,0,0,0-.867.867v.867a.867.867,0,0,0,.867.867h.082A.861.861,0,0,1,2.383,6.283Z" fill="#878787"/>
      <path id="Path_74" data-name="Path 74" d="M4.117,3.683H7.8V6.324a1.3,1.3,0,0,1-.468,1l-1.019.558a1.1,1.1,0,0,1-.528.135H5.048a1.1,1.1,0,0,1-.528-.135L3.5,7.323a1.3,1.3,0,0,1-.468-1V4.55Z" fill="#fce0b9"/>
      <path id="Path_75" data-name="Path 75" d="M5.85,5.417a.217.217,0,0,0-.217.217V8.017h.152a1.1,1.1,0,0,0,.528-.135l1.019-.558a1.3,1.3,0,0,0,.468-1V5.417Z" fill="#f0d2a8"/>
      <path id="Path_76" data-name="Path 76" d="M6.283,6.067v4.767H9.317V7.15a.433.433,0,0,1,.867,0v3.683h3.033V6.067Z" fill="#383838"/>
      <path id="Path_77" data-name="Path 77" d="M9.75,6.717a.433.433,0,0,0-.433.433v5.2h.867V7.15A.433.433,0,0,0,9.75,6.717Z" fill="#383838"/>
      <path id="Path_78" data-name="Path 78" d="M7.8,12.567v.867h3.9v-.867a.217.217,0,0,0-.217-.217H8.017A.217.217,0,0,0,7.8,12.567Z" fill="#383838"/>
      <path id="Path_79" data-name="Path 79" d="M8.883,6.6v4.233h.433V7.15a.433.433,0,0,1,.867,0v3.683h.433V6.6c0-.295-.388-.533-.867-.533S8.883,6.305,8.883,6.6Z" fill="#262626"/>
      <path id="Path_80" data-name="Path 80" d="M7.8,12.783h3.9v.65H7.8Z" fill="#262626"/>
      <path id="Path_81" data-name="Path 81" d="M3.033,4.55v.7l.483-.362a3.874,3.874,0,0,1,2.325-.775H7.8V3.683H4.117Z" fill="#f0d2a8"/>
      <ellipse id="Ellipse_7" data-name="Ellipse 7" cx="0.217" cy="0.325" rx="0.217" ry="0.325" transform="translate(4.333 5.2)" fill="#2b2210"/>
      <ellipse id="Ellipse_8" data-name="Ellipse 8" cx="0.217" cy="0.325" rx="0.217" ry="0.325" transform="translate(6.5 5.2)" fill="#2b2210"/>
      <circle id="Ellipse_9" data-name="Ellipse 9" cx="0.108" cy="0.108" r="0.108" transform="translate(4.55 5.417)" fill="#fff"/>
      <circle id="Ellipse_10" data-name="Ellipse 10" cx="0.108" cy="0.108" r="0.108" transform="translate(6.717 5.417)" fill="#fff"/>
    </g>
  </g>
</svg>
