<svg xmlns="http://www.w3.org/2000/svg" width="16" height="16" viewBox="0 0 16 16">
  <g id="Group_1534" data-name="Group 1534" transform="translate(-297 -736)">
    <g id="add_1_" data-name="add (1)" transform="translate(297 736)">
      <g id="Group_1455" data-name="Group 1455" transform="translate(0 0)">
        <g id="Group_1454" data-name="Group 1454">
          <path id="Path_505" data-name="Path 505" d="M8,0a8,8,0,1,0,8,8A8.009,8.009,0,0,0,8,0ZM8,14.761A6.761,6.761,0,1,1,14.761,8,6.769,6.769,0,0,1,8,14.761Z" fill="#ff2e2e"/>
        </g>
      </g>
      <g id="Group_1457" data-name="Group 1457" transform="translate(2.5 7)">
        <g id="Group_1456" data-name="Group 1456">
          <path id="Path_506" data-name="Path 506" d="M15.436,9.156H6.269a1,1,0,0,0,0,2h9.167a1,1,0,0,0,0-2Z" transform="translate(-5.352 -9.156)" fill="#ff2e2e"/>
        </g>
      </g>
    </g>
  </g>
</svg>
