<svg xmlns="http://www.w3.org/2000/svg" width="12.65" height="12.65" viewBox="0 0 12.65 12.65">
  <g id="Group_1657" data-name="Group 1657" transform="translate(-102.409 -0.004)">
    <g id="Group_93" data-name="Group 93" transform="translate(102.409 0.004)">
      <path id="Path_100" data-name="Path 100" d="M114.414.649a2.2,2.2,0,0,0-3.113,0l-7.574,7.573a.581.581,0,0,0-.139.225l-1.15,3.45a.575.575,0,0,0,.545.757.584.584,0,0,0,.182-.029l3.45-1.15a.575.575,0,0,0,.225-.139l7.574-7.574A2.2,2.2,0,0,0,114.414.649Zm-.813,2.3-7.475,7.475-2.233.746.743-2.23,7.478-7.475A1.051,1.051,0,1,1,113.6,2.949Z" transform="translate(-102.409 -0.004)" fill="#f26826"/>
    </g>
  </g>
</svg>
