<svg xmlns="http://www.w3.org/2000/svg" width="13" height="13" viewBox="0 0 13 13">
  <g id="Group_91" data-name="Group 91" transform="translate(-102.409 -0.004)">
    <g id="Group_93" data-name="Group 93" transform="translate(102.409 0.004)">
      <path id="Path_100" data-name="Path 100" d="M114.746.666a2.262,2.262,0,0,0-3.2,0L103.763,8.45a.6.6,0,0,0-.142.231l-1.182,3.545A.591.591,0,0,0,103,13a.6.6,0,0,0,.187-.03l3.545-1.182a.591.591,0,0,0,.231-.143l7.783-7.783A2.262,2.262,0,0,0,114.746.666ZM113.91,3.03l-7.682,7.682-2.3.766.764-2.292L112.382,1.5A1.08,1.08,0,1,1,113.91,3.03Z" transform="translate(-102.409 -0.004)" fill="#fff"/>
    </g>
  </g>
</svg>
