<svg xmlns="http://www.w3.org/2000/svg" width="19.513" height="16.381" viewBox="0 0 19.513 16.381">
  <g id="My_Team" data-name="My Team" transform="translate(-0.267 -0.445)">
    <path id="Path_16" data-name="Path 16" d="M14.117,16.076V14.422a3.323,3.323,0,0,0-.959-2.338,3.259,3.259,0,0,0-2.316-.969H4.292a3.259,3.259,0,0,0-2.316.969,3.323,3.323,0,0,0-.959,2.338v1.654" fill="none" stroke="#a1a1a1" stroke-linecap="round" stroke-linejoin="round" stroke-width="1.5"/>
    <path id="Path_17" data-name="Path 17" d="M10.842,4.5a3.33,3.33,0,0,1-.552,1.837A3.282,3.282,0,0,1,8.82,7.557,3.252,3.252,0,0,1,5.251,6.84a3.325,3.325,0,0,1,.5-5.088,3.251,3.251,0,0,1,4.135.411A3.323,3.323,0,0,1,10.842,4.5Z" fill="none" stroke="#a1a1a1" stroke-linecap="round" stroke-linejoin="round" stroke-width="1.5"/>
    <path id="Path_18" data-name="Path 18" d="M19.029,16.076V14.423a3.327,3.327,0,0,0-.687-2.022,3.273,3.273,0,0,0-1.769-1.175" fill="none" stroke="#232323" stroke-linecap="round" stroke-linejoin="round" stroke-width="1.5"/>
    <path id="Path_19" data-name="Path 19" d="M13.3,1.306a3.273,3.273,0,0,1,1.771,1.177,3.332,3.332,0,0,1,0,4.051A3.273,3.273,0,0,1,13.3,7.71" fill="#232323"/>
  </g>
</svg>
