<svg xmlns="http://www.w3.org/2000/svg" width="85" height="85" viewBox="0 0 85 85">
  <g id="Group_1589" data-name="Group 1589" transform="translate(-686 -183)">
    <g id="Ellipse_49" data-name="Ellipse 49" transform="translate(686 183)" fill="#232323" stroke="#4a4a4a" stroke-width="1">
      <circle cx="42.5" cy="42.5" r="42.5" stroke="none"/>
      <circle cx="42.5" cy="42.5" r="42" fill="none"/>
    </g>
    <path id="Icon_awesome-users" data-name="Icon awesome-users" d="M7.322,16.894a4.881,4.881,0,1,0-4.881-4.881A4.886,4.886,0,0,0,7.322,16.894Zm34.168,0a4.881,4.881,0,1,0-4.881-4.881A4.886,4.886,0,0,0,41.49,16.894Zm2.441,2.441H39.05a4.867,4.867,0,0,0-3.44,1.419A11.156,11.156,0,0,1,41.338,29.1h5.034a2.438,2.438,0,0,0,2.441-2.441V24.215A4.886,4.886,0,0,0,43.931,19.334Zm-19.525,0a8.542,8.542,0,1,0-8.542-8.542A8.538,8.538,0,0,0,24.406,19.334Zm5.857,2.441H29.63a11.794,11.794,0,0,1-10.449,0h-.633a8.788,8.788,0,0,0-8.786,8.786v2.2a3.662,3.662,0,0,0,3.661,3.661H35.389a3.662,3.662,0,0,0,3.661-3.661v-2.2A8.788,8.788,0,0,0,30.263,21.775ZM13.2,20.753a4.867,4.867,0,0,0-3.44-1.419H4.881A4.886,4.886,0,0,0,0,24.215v2.441A2.438,2.438,0,0,0,2.441,29.1H7.467A11.184,11.184,0,0,1,13.2,20.753Z" transform="translate(703.884 205.955)" fill="#f26826" opacity="0.6"/>
  </g>
</svg>
