<svg xmlns="http://www.w3.org/2000/svg" xmlns:xlink="http://www.w3.org/1999/xlink" width="8" height="8" viewBox="0 0 8 8">
  <defs>
    <clipPath id="clip-path">
      <rect id="Rectangle_763" data-name="Rectangle 763" width="8" height="8" transform="translate(0 0)" fill="#fff" stroke="#707070" stroke-width="1"/>
    </clipPath>
  </defs>
  <g id="Mask_Group_270" data-name="Mask Group 270" transform="translate(0 0)" clip-path="url(#clip-path)">
    <g id="trophy" transform="translate(0.221 0.408)">
      <g id="Group_1426" data-name="Group 1426" transform="translate(2.337 6.18)">
        <path id="Path_497" data-name="Path 497" d="M5.591,6.7,3.985,6.239,2.378,6.7a.189.189,0,0,0-.019.088v.96H5.61v-.96A.189.189,0,0,0,5.591,6.7Z" transform="translate(-2.359 -6.239)" fill="#646d73"/>
      </g>
      <path id="Path_498" data-name="Path 498" d="M5.625,7.751v-.96A.189.189,0,0,0,5.607,6.7L4,6.239V7.751Z" transform="translate(-0.038 -0.059)" fill="#474f54"/>
      <path id="Path_499" data-name="Path 499" d="M7.693.464H6.506c0-.078.01-.152.01-.232A.23.23,0,0,0,6.284,0H1.641a.23.23,0,0,0-.232.232c0,.08.008.154.01.232H.232A.232.232,0,0,0,0,.7v.588A2.44,2.44,0,0,0,2.318,3.7a2.3,2.3,0,0,0,.943.793A3.469,3.469,0,0,1,2.407,6.57a.165.165,0,0,0-.051.074H5.569a.165.165,0,0,0-.051-.074,3.425,3.425,0,0,1-.854-2.076A2.308,2.308,0,0,0,5.609,3.7,2.44,2.44,0,0,0,7.925,1.285V.7A.232.232,0,0,0,7.693.464Zm-7.228.82V.929h.974A6.166,6.166,0,0,0,2.015,3.2,1.981,1.981,0,0,1,.464,1.285Zm7,0A1.981,1.981,0,0,1,5.911,3.2,6.191,6.191,0,0,0,6.486.929H7.46Z" fill="#fed843"/>
      <path id="Path_500" data-name="Path 500" d="M7.73.464H6.544c0-.078.01-.152.01-.232A.23.23,0,0,0,6.322,0H4V6.645H5.607a.165.165,0,0,0-.051-.074A3.425,3.425,0,0,1,4.7,4.495,2.308,2.308,0,0,0,5.646,3.7,2.44,2.44,0,0,0,7.962,1.285V.7A.232.232,0,0,0,7.73.464Zm-.232.82A1.981,1.981,0,0,1,5.949,3.2,6.189,6.189,0,0,0,6.524.929H7.5Z" transform="translate(-0.038)" fill="#fabe2c"/>
      <g id="Trophy_31_" transform="translate(2.958 1.055)">
        <g id="Group_1427" data-name="Group 1427">
          <path id="Path_501" data-name="Path 501" d="M4.361,2.963l-.37-.193-.37.193a.232.232,0,0,1-.336-.244l.068-.412-.3-.293a.232.232,0,0,1,.128-.395L3.6,1.557l.187-.373a.242.242,0,0,1,.415,0l.187.373.413.062a.232.232,0,0,1,.128.395l-.3.293.068.412a.232.232,0,0,1-.336.244Z" transform="translate(-2.986 -1.065)" fill="#fabe2c"/>
        </g>
      </g>
      <path id="Path_502" data-name="Path 502" d="M4.37,2.963a.232.232,0,0,0,.336-.244l-.068-.412.3-.293a.232.232,0,0,0-.128-.395l-.413-.062-.187-.373A.227.227,0,0,0,4,1.065V2.771Z" transform="translate(-0.038 -0.01)" fill="#ff9100"/>
      <g id="Group_1428" data-name="Group 1428" transform="translate(1.873 7.46)">
        <path id="Path_503" data-name="Path 503" d="M5.838,8H2.123a.232.232,0,1,1,0-.464H5.838a.232.232,0,1,1,0,.464Z" transform="translate(-1.891 -7.531)" fill="#474f54"/>
      </g>
      <path id="Path_504" data-name="Path 504" d="M5.857,7.531H4V8H5.857a.232.232,0,0,0,0-.464Z" transform="translate(-0.038 -0.071)" fill="#32393f"/>
    </g>
  </g>
</svg>
