<svg xmlns="http://www.w3.org/2000/svg" width="18.063" height="18" viewBox="0 0 18.063 18">
  <g id="Page-1" transform="translate(-1 -1)">
    <g id="icon-115-lock-open" transform="translate(1 1)">
      <path id="lock-open" d="M12.44,14.305v1.506a.3.3,0,0,0,.6,0V14.305a.874.874,0,0,0,.6-.821.9.9,0,0,0-1.806,0,.874.874,0,0,0,.6.821ZM8.225,5.355A2.664,2.664,0,0,0,5.516,2.742,2.663,2.663,0,0,0,2.806,5.355V7.677a.89.89,0,0,1-.9.871A.886.886,0,0,1,1,7.677V5.354A4.437,4.437,0,0,1,5.516,1a4.441,4.441,0,0,1,4.516,4.354V9.71h7.22a1.78,1.78,0,0,1,1.812,1.747v5.8A1.776,1.776,0,0,1,17.251,19H8.23a1.78,1.78,0,0,1-1.812-1.747v-5.8A1.776,1.776,0,0,1,8.225,9.71V5.355Z" transform="translate(-1 -1)" fill-rule="evenodd"/>
    </g>
  </g>
</svg>
