<svg xmlns="http://www.w3.org/2000/svg" width="98.25" height="87" viewBox="0 0 98.25 87">
  <g id="photo" transform="translate(0 -24)" opacity="0.21">
    <g id="Group_1555" data-name="Group 1555" transform="translate(0 24)">
      <g id="Group_1554" data-name="Group 1554" transform="translate(0 0)">
        <circle id="Ellipse_51" data-name="Ellipse 51" cx="6.75" cy="6.75" r="6.75" transform="translate(30.281 21.469)" fill="#817d7d"/>
        <path id="Path_546" data-name="Path 546" d="M92.438,77.063a20.787,20.787,0,0,0-11.625-5.531V37.219a13.5,13.5,0,0,0-3.844-9.375A13.1,13.1,0,0,0,67.594,24H13.219a13.5,13.5,0,0,0-9.375,3.844A13.1,13.1,0,0,0,0,37.219V93.188a13.5,13.5,0,0,0,3.844,9.375,13.1,13.1,0,0,0,9.375,3.844H65.812A19.834,19.834,0,0,0,92.438,77.063ZM4.969,37.219A7.847,7.847,0,0,1,7.406,31.5a8.226,8.226,0,0,1,5.813-2.437H67.594a8.323,8.323,0,0,1,8.25,8.25v29.25L61.969,52.687a2.517,2.517,0,0,0-3.562,0l-20.906,21L23.344,59.437a2.517,2.517,0,0,0-3.562,0l-14.812,15Zm8.156,64.406v-.187A8.226,8.226,0,0,1,7.313,99a8.556,8.556,0,0,1-2.344-5.813V81.563L21.563,64.875,35.719,79.031a2.607,2.607,0,0,0,3.562,0l20.906-21L73.875,71.812l-.844.281a8.708,8.708,0,0,0-1.219.375c-.375.094-.75.281-1.125.375a2.807,2.807,0,0,0-.75.375,8.71,8.71,0,0,0-.937.469l-1.406.844c-.281.188-.469.281-.75.469-.187.094-.281.188-.469.281a11.311,11.311,0,0,0-2.25,1.969,19.832,19.832,0,0,0-5.812,14.063,20.61,20.61,0,0,0,.469,4.125c.094.375.188.656.281,1.031.281.937.563,1.875.938,2.813v.094a17.2,17.2,0,0,0,1.219,2.25Zm75.656,0a14.83,14.83,0,0,1-20.719.187c-.375-.375-.75-.844-1.125-1.219-.281-.281-.562-.656-.844-.938a8.9,8.9,0,0,1-.938-1.594c-.187-.375-.375-.656-.562-1.031a7.919,7.919,0,0,1-.469-1.594c-.094-.375-.281-.844-.375-1.219a15.517,15.517,0,0,1-.281-3,15.048,15.048,0,0,1,4.312-10.5,14.494,14.494,0,0,1,10.5-4.312,15.048,15.048,0,0,1,10.5,4.312,14.653,14.653,0,0,1,4.312,10.5A14.994,14.994,0,0,1,88.781,101.625Z" transform="translate(0 -24)" fill="#817d7d"/>
        <path id="Path_547" data-name="Path 547" d="M308.678,265.15a3.272,3.272,0,0,0-.844-.562,2.738,2.738,0,0,0-.844-.187H306.8a2.738,2.738,0,0,0-.844.188,2.213,2.213,0,0,0-.844.563l-5.812,5.812a2.519,2.519,0,0,0,3.563,3.563l1.5-1.5v10.313a2.531,2.531,0,1,0,5.063,0V273.025l1.5,1.5a2.519,2.519,0,0,0,3.563-3.563Z" transform="translate(-228.616 -208.056)" fill="#817d7d"/>
      </g>
    </g>
  </g>
</svg>
